<svg width="606" height="700" viewBox="0 0 606 700" fill="none" xmlns="http://www.w3.org/2000/svg">
<g clip-path="url(#clip0_106_53)">
<path d="M217.205 130.732C212.346 128.564 208.823 125.599 205.696 122.397C202.686 119.23 200.087 115.671 197.962 111.808C195.825 107.953 194.188 103.818 193.091 99.5082C192.018 95.0795 191.357 90.4059 192.035 84.9297C196.906 87.0882 200.439 90.05 203.563 93.2537C206.575 96.4193 209.168 99.9825 211.278 103.854C213.401 107.718 215.033 111.856 216.133 116.166C217.199 120.596 217.867 125.268 217.205 130.732Z" fill="#8BC34A"/>
<path d="M214.263 84.643C217.41 89.0407 219.035 93.4645 220.202 97.8938C221.282 102.237 221.821 106.713 221.807 111.217C221.809 115.719 221.246 120.214 220.134 124.589C218.943 129.058 217.281 133.535 214.088 138.033C210.918 133.635 209.29 129.214 208.13 124.783C207.047 120.442 206.515 115.963 206.546 111.459C206.562 106.957 207.132 102.463 208.242 98.0869C209.43 93.6173 211.085 89.1448 214.263 84.643Z" fill="#7CB342"/>
<path d="M224.8 131.777C219.433 132.322 214.859 131.51 210.524 130.29C206.22 129.017 202.231 127.209 198.51 124.948C194.738 122.666 191.273 119.891 188.201 116.689C185.095 113.379 182.233 109.642 180.173 104.541C185.549 103.979 190.127 104.786 194.458 106.008C198.674 107.257 202.707 109.059 206.461 111.37C210.225 113.666 213.685 116.447 216.758 119.648C219.865 122.965 222.733 126.694 224.8 131.777Z" fill="#7CB342"/>
<path d="M231.846 89.6052C233.365 94.8817 233.448 99.6545 233.103 104.277C232.699 108.879 231.731 113.283 230.282 117.522C228.821 121.813 226.834 125.903 224.37 129.691C221.806 133.543 218.799 137.234 214.343 140.424C212.806 135.142 212.714 130.367 213.069 125.747C213.472 121.145 214.441 116.738 215.91 112.508C217.377 108.274 219.326 104.213 221.839 100.343C224.408 96.4964 227.411 92.7978 231.846 89.6052Z" fill="#558B2F"/>
<path d="M175.889 119.732C180.8 118.002 185.194 117.759 189.43 117.961C193.647 118.223 197.66 119.07 201.499 120.419C205.392 121.778 209.078 123.681 212.454 126.076C215.891 128.581 219.166 131.542 221.919 136.002C217.001 137.753 212.606 138.002 208.369 137.793C204.153 137.528 200.139 136.684 196.309 135.314C192.476 133.951 188.817 132.085 185.363 129.638C181.926 127.129 178.65 124.175 175.889 119.732Z" fill="#558B2F"/>
<path d="M266.169 144.184C261.226 134.97 252.298 128.088 242.093 125.089C236.796 123.532 224.672 124.453 218.699 127.779L216.01 129.349L212.624 131.326C212.624 131.326 202.876 136.505 199.161 149.669C196.101 160.511 196.854 172.328 201.889 181.706L209.395 195.704C219.345 214.256 241.803 220.899 259.556 210.539C277.306 200.176 283.628 176.734 273.677 158.183L266.169 144.184Z" fill="#F9A825"/>
<path d="M277.93 171.24L277.934 171.228C277.456 167.871 276.554 164.602 275.249 161.503C274.088 163.82 273.095 166.22 272.277 168.683C268.842 167.904 263.124 166.956 258.529 167.857C260.078 163.108 262.795 157.181 265.319 155.712C266.695 154.907 269.202 154.758 271.948 154.959L268.497 148.524C267.631 148.572 266.768 148.678 265.914 148.841C266.239 147.857 266.617 146.819 267.029 145.788L266.168 144.184C265.268 142.509 264.236 140.919 263.087 139.408C261.993 141.633 261.051 143.932 260.266 146.287C256.831 145.511 251.112 144.563 246.517 145.463C248.07 140.713 250.782 134.79 253.305 133.318C254.05 132.885 255.137 132.657 256.387 132.554C249.637 127.161 241.433 124.013 232.838 123.521C224.8 123.696 216.012 129.353 216.012 129.353C217.993 128.197 222.297 128.385 226.328 129.053C224.057 132.483 222.406 136.707 221.465 139.528C218.668 138.889 214.351 138.143 210.363 138.372C211.929 134.439 214.023 130.514 216.008 129.355C216.008 129.355 206.844 133.119 202.652 141.067C198.493 148.995 196.71 157.982 197.534 166.868C198.261 165.837 199.005 165.017 199.731 164.589C202.253 163.117 208.517 163.802 213.208 164.906C210.072 168.518 207.851 174.1 206.692 177.558C204.358 177.026 201.989 176.663 199.601 176.472C200.229 178.282 200.987 180.038 201.885 181.708L202.742 183.311C203.804 183.486 204.846 183.692 205.82 183.921C205.238 184.592 204.7 185.303 204.21 186.048L207.662 192.483C208.935 189.933 210.367 187.785 211.746 186.98C214.268 185.511 220.529 186.196 225.219 187.3C222.079 190.913 219.862 196.493 218.702 199.954C216.262 199.393 213.781 199.022 211.28 198.843C213.166 201.688 215.381 204.166 217.821 206.315L217.83 206.317C219.413 207.717 221.111 208.973 222.904 210.075C223.186 209.806 223.473 209.54 223.753 209.376C226.276 207.904 232.536 208.591 237.226 209.695C236.011 211.1 234.944 212.807 234.011 214.564C236.213 215.047 238.458 215.32 240.721 215.375C241.523 214.178 242.348 213.23 243.152 212.758C245.398 211.447 250.594 211.848 255.023 212.733C256.552 212.102 258.073 211.4 259.546 210.54C261.021 209.677 262.387 208.691 263.705 207.666C265.298 203.265 267.692 198.437 269.935 197.125C270.742 196.654 271.947 196.42 273.346 196.329C274.485 194.289 275.435 192.153 276.192 189.943C274.269 189.853 272.317 189.909 270.533 190.255C272.081 185.506 274.798 179.582 277.32 178.109C277.6 177.946 277.969 177.83 278.335 177.72C278.373 175.566 278.238 173.4 277.923 171.241L277.93 171.24ZM259.406 152.653C256.267 156.264 254.038 161.84 252.875 165.3C249.44 164.524 243.718 163.588 239.125 164.493C240.673 159.738 243.392 153.801 245.918 152.329C248.442 150.854 254.711 151.541 259.406 152.653ZM252.022 171.665C248.879 175.278 246.651 180.852 245.49 184.316C242.053 183.536 236.334 182.601 231.738 183.504C233.288 178.753 236.007 172.816 238.533 171.345C241.056 169.869 247.325 170.559 252.022 171.665ZM233.905 129.929C236.427 128.46 242.688 129.144 247.379 130.248C244.239 133.862 242.025 139.443 240.863 142.9C237.431 142.122 231.712 141.177 227.118 142.074C228.67 137.327 231.383 131.401 233.905 129.929ZM240.007 149.271C236.866 152.881 234.638 158.454 233.475 161.914C230.039 161.138 224.323 160.207 219.728 161.108C221.275 156.353 223.997 150.42 226.52 148.947C229.042 147.475 235.312 148.162 240.007 149.271ZM200.329 157.726C201.876 152.974 204.598 147.041 207.118 145.565L207.126 145.56C209.651 144.091 215.92 144.779 220.613 145.886C217.471 149.497 215.246 155.071 214.079 158.533C210.644 157.757 204.924 156.825 200.329 157.726ZM212.35 180.109C213.897 175.357 216.614 169.429 219.135 167.96C221.658 166.487 227.918 167.175 232.609 168.279C229.47 171.89 227.255 177.474 226.093 180.931C222.66 180.155 216.939 179.207 212.35 180.109ZM224.361 202.502C225.908 197.75 228.627 191.827 231.15 190.354C233.671 188.885 239.93 189.568 244.625 190.677C241.483 194.287 239.265 199.87 238.107 203.325C234.675 202.55 228.952 201.604 224.361 202.502ZM257.504 206.71C254.066 205.933 248.35 204.999 243.754 205.903C245.305 201.148 248.024 195.215 250.547 193.739C253.073 192.268 259.343 192.955 264.041 194.064C260.893 197.676 258.665 203.246 257.504 206.71ZM264.887 187.694C261.451 186.918 255.733 185.98 251.139 186.887C252.687 182.132 255.407 176.195 257.929 174.723C260.459 173.249 266.725 173.938 271.423 175.048C268.278 178.66 266.053 184.232 264.887 187.694Z" fill="#C68632"/>
</g>
<path d="M422.701 186.981C434.831 199.114 422.974 223.206 400.799 245.384C378.624 267.551 354.529 279.411 342.399 267.284C330.266 255.151 342.124 231.059 364.299 208.881C386.471 186.711 410.569 174.851 422.701 186.981Z" fill="#FFB300"/>
<path d="M372.314 239.476C373.076 249.931 371.451 255.899 369.326 259.309C364.789 263.386 362.646 263.846 362.646 263.846C362.646 263.846 361.929 235.431 362.706 224.634C362.759 223.904 366.196 219.269 366.196 219.269C366.196 219.269 371.526 228.676 372.314 239.476ZM392.314 222.756C393.076 233.211 391.449 239.179 389.326 242.589C384.789 246.666 382.646 247.126 382.646 247.126C382.646 247.126 381.929 218.714 382.704 207.914C382.756 207.184 386.194 202.549 386.194 202.549C386.194 202.549 391.529 211.959 392.314 222.756ZM412.369 207.026C413.131 217.481 411.504 223.449 409.381 226.859C404.844 230.936 402.701 231.396 402.701 231.396C402.701 231.396 401.984 202.984 402.759 192.184C402.811 191.454 406.249 186.819 406.249 186.819C406.249 186.819 411.579 196.229 412.369 207.026Z" fill="#FFA000"/>
<path d="M367.549 244.241C367.549 255.069 362.646 263.846 362.646 263.846C362.646 263.846 357.746 255.069 357.746 244.241C357.746 233.414 362.646 224.634 362.646 224.634C362.646 224.634 367.549 233.414 367.549 244.241ZM387.584 227.526C387.584 238.356 382.684 247.134 382.684 247.134C382.684 247.134 377.784 238.356 377.781 227.526C377.781 216.701 382.684 207.921 382.684 207.921C382.684 207.921 387.584 216.701 387.584 227.526ZM407.549 211.739C407.549 222.569 402.646 231.346 402.646 231.346C402.646 231.346 397.746 222.569 397.744 211.739C397.744 200.914 402.646 192.134 402.646 192.134C402.646 192.134 407.549 200.914 407.549 211.739Z" fill="#FFE082"/>
<g clip-path="url(#clip1_106_53)">
<path d="M254.857 280.844C254.979 279.829 254.886 278.8 254.582 277.825C254.279 276.849 253.773 275.948 253.097 275.182C252.422 274.415 251.592 273.8 250.662 273.377C249.732 272.953 248.723 272.732 247.701 272.725C246.5 272.712 245.314 273.002 244.255 273.569C243.196 274.137 242.298 274.963 241.644 275.971C241.103 276.8 240.734 277.728 240.558 278.702C240.263 280.335 239.598 281.878 238.615 283.214C237.632 284.551 236.356 285.644 234.885 286.411L214.925 296.876L218.958 304.569L238.918 294.104C240.386 293.331 242.012 292.904 243.671 292.855C245.329 292.807 246.977 293.138 248.488 293.824C249.34 294.214 250.299 294.447 251.347 294.482C252.548 294.518 253.739 294.249 254.809 293.701C255.879 293.153 256.792 292.343 257.464 291.347C258.04 290.503 258.432 289.547 258.612 288.541C258.793 287.535 258.759 286.503 258.513 285.511C258.267 284.519 257.814 283.591 257.184 282.787C256.554 281.982 255.761 281.32 254.857 280.844ZM270.025 309.84C270.87 308.368 271.327 306.6 270.539 304.169C269.844 302.032 268.279 300.145 266.154 299.4C265.237 299.079 264.264 298.945 263.294 299.007C262.324 299.07 261.376 299.327 260.508 299.763C259.639 300.2 258.867 300.806 258.238 301.548C257.609 302.289 257.136 303.149 256.847 304.077L256.831 304.127C255.941 307.055 253.705 309.373 250.681 309.864L227.564 313.622L228.958 322.199L254.019 318.126C256.79 317.674 259.428 318.922 261.273 321.039C261.954 321.813 262.791 322.435 263.73 322.861C264.67 323.288 265.689 323.509 266.72 323.512C267.891 323.524 269.046 323.245 270.082 322.701C271.119 322.156 272.004 321.364 272.659 320.393C273.243 319.546 273.64 318.585 273.824 317.572C274.007 316.56 273.973 315.52 273.724 314.522C273.475 313.524 273.016 312.59 272.379 311.783C271.741 310.975 270.939 310.313 270.025 309.84Z" fill="#D7CCC8"/>
<path d="M231.713 306.851C234.434 298.129 238.918 294.104 238.918 294.104L234.885 286.411C225.088 291.548 200.089 281.814 200.089 281.814L231.713 306.851Z" fill="#BF360C"/>
<path d="M136.881 328.827C136.881 328.827 150.765 351.361 181.463 360.941C212.161 370.521 242.304 360.398 247.102 345.023C251.9 329.647 234.477 307.713 234.477 307.713C234.477 307.713 216.275 286.865 200.089 281.814C155.857 268.01 136.881 328.827 136.881 328.827Z" fill="#E64A19"/>
<path d="M247.761 336.467C247.221 331.384 245.304 326.181 243.068 321.603C220.851 317.537 179.719 317.927 179.719 317.927C179.719 317.927 181.454 336.67 202.186 343.14C220.649 348.902 230.574 347.157 247.761 336.467Z" fill="#D84315"/>
<path d="M200.089 281.814C221.59 288.524 228.133 302.7 240.868 306.674L250.718 309.748L251.945 318.568C251.945 318.568 223.928 343.858 201.147 336.748C184.561 331.572 179.719 317.927 179.719 317.927C179.719 317.927 179.081 308.627 168.485 305.32C154.663 301.007 136.881 328.827 136.881 328.827C136.881 328.827 155.86 268.011 200.089 281.814Z" fill="#FF7043"/>
<path d="M181.092 294.087C180.863 294.82 180.352 295.432 179.672 295.789C178.992 296.145 178.198 296.217 177.465 295.988C176.731 295.76 176.119 295.249 175.762 294.569C175.406 293.889 175.334 293.095 175.563 292.361C175.792 291.628 176.302 291.016 176.983 290.659C177.663 290.303 178.457 290.231 179.19 290.46C179.923 290.689 180.535 291.199 180.892 291.879C181.249 292.56 181.32 293.354 181.092 294.087ZM191.973 288.382C191.239 288.153 190.445 288.225 189.765 288.581C189.085 288.938 188.574 289.55 188.346 290.283C188.117 291.017 188.189 291.811 188.545 292.491C188.902 293.171 189.514 293.682 190.247 293.91C190.98 294.139 191.774 294.067 192.455 293.711C193.135 293.354 193.646 292.742 193.874 292.009C194.103 291.276 194.031 290.482 193.675 289.801C193.318 289.121 192.706 288.611 191.973 288.382ZM188.522 299.439C187.789 299.21 186.995 299.282 186.315 299.639C185.634 299.995 185.124 300.608 184.895 301.341C184.666 302.074 184.738 302.868 185.095 303.548C185.451 304.228 186.063 304.739 186.797 304.968C187.53 305.197 188.324 305.125 189.004 304.768C189.684 304.412 190.195 303.799 190.424 303.066C190.652 302.333 190.581 301.539 190.224 300.859C189.867 300.179 189.255 299.668 188.522 299.439Z" fill="#F4511E"/>
</g>
<g clip-path="url(#clip2_106_53)">
<path d="M387.385 356.756C387.385 356.756 358.863 357.109 360.204 380.354C361.552 403.601 383.725 406.21 389.984 406.278C396.239 406.345 423.846 404.299 424.241 378.713C424.571 357.51 403.97 349.197 389.474 356.78L387.385 356.756Z" fill="#FF3D00"/>
<path d="M389.474 356.78L387.386 356.757C387.386 356.757 366.59 357.027 361.356 371.588C364.334 372.63 369.057 373.59 369.057 373.59C372.309 374.235 375.31 374.275 377.976 373.703C380.61 373.138 382.888 371.995 384.732 370.359C386.139 373.548 388.8 376.65 393.822 378.41L397.47 379.688L398.245 375.9C398.894 372.723 399.009 370.166 398.697 367.955C400.589 368.448 402.607 368.59 404.683 368.145C407.173 367.611 409.522 366.284 411.665 364.205C411.665 364.205 414.511 361.632 416.253 359.6C409.002 353.401 398.148 352.243 389.474 356.78Z" fill="#DD2C00"/>
<path d="M394.938 375.225C396.553 367.328 394.517 364.337 390.147 358.992C395.542 363.582 402.47 368.432 409.315 361.786C402.956 361.477 403.053 356.619 395.3 356.91C400.954 355.942 404.293 357.059 406.483 348.586C401.132 353.054 396.115 346.854 389.814 355.703C388.667 356.809 386.83 355.021 386.012 356.379C378.335 348.186 373.413 358.035 369.122 351.422C371.498 362.497 381.481 357.204 384.445 358.491C374.259 359.794 376.663 367.243 369.715 370.28C380.157 372.355 385.497 367.003 386.536 359.611C386.718 362.373 385.208 371.815 394.938 375.225Z" fill="#4CAF50"/>
<path d="M386.118 358.234C386.145 358.568 387.097 359.646 389.335 359.166C392.013 358.592 390.7 357.477 390.7 357.477C390.7 357.477 388.801 349.824 393.317 343.53C391.64 342.655 390.278 343.609 390.278 343.609C390.278 343.609 385.616 351.075 386.118 358.234Z" fill="#4CAF50"/>
</g>
<path d="M272.375 511.75C266.556 511.75 261.35 508.688 258.594 505.013C252.469 505.931 244.813 504.4 241.444 499.5C235.931 492.15 237.769 484.188 238.994 480.819C238.994 480.513 239.3 480.206 239.3 480.206L247.875 467.344C248.488 466.119 250.019 465.813 251.244 466.119L288.913 480.819C290.444 481.125 291.056 482.656 291.056 484.188L287.381 504.094C287.381 504.706 287.075 505.013 286.769 505.319C286.463 505.625 282.481 510.831 274.213 511.444C273.6 511.75 272.988 511.75 272.375 511.75Z" fill="#558B2F"/>
<path d="M280.031 502.563C278.5 500.725 277.275 498.581 276.663 496.438C276.356 495.825 276.356 495.213 276.05 494.6C275.744 493.988 275.438 492.456 274.825 490.006C272.681 489.7 270.538 489.088 268.394 488.169C267.781 487.863 267.475 487.863 266.863 487.556L265.025 486.638C264.413 486.331 264.106 486.331 263.494 486.025C261.35 485.106 259.513 483.881 257.675 482.656C255.838 483.881 253.694 484.8 251.55 485.106H250.938C250.019 485.412 247.875 485.719 245.425 485.719C243.281 485.719 240.525 485.412 238.075 484.494C243.588 491.231 250.019 491.537 252.775 490.925C254.306 490.619 255.838 490.313 257.369 489.394C261.044 491.844 265.331 493.681 269.925 494.906C270.231 495.519 270.231 495.825 270.231 496.438C272.069 502.256 278.5 507.462 285.238 506.85C283.094 505.931 281.563 504.4 280.031 502.563Z" fill="#33691E"/>
<path d="M245.425 485.412C240.525 485.412 233.481 484.187 228.888 477.756C225.825 473.162 225.213 464.894 227.969 459.381C222.763 454.787 217.863 444.987 221.231 434.881C224.294 425.387 232.869 421.1 238.688 419.569C238.688 414.975 239.913 409.462 244.506 404.869C252.469 396.6 262.881 398.744 263.494 398.744C265.025 399.05 265.944 400.581 265.638 402.112L266.863 474.081C266.556 475.306 258.9 483.881 251.55 485.106C251.55 484.8 248.794 485.412 245.425 485.412Z" fill="#7CB342"/>
<path d="M332.4 462.75C327.806 467.344 321.375 467.65 317.7 467.038C320.15 461.831 321.375 456.319 321.375 450.5C321.375 428.45 303.613 410.688 281.562 410.688C272.681 410.688 264.719 413.444 258.288 418.344C256.756 416.506 255.838 413.444 255.531 411.3V410.994V409.769C255.531 408.85 255.531 407.931 255.837 407.013V406.706C256.144 405.788 256.144 404.869 256.45 404.256C256.45 404.256 256.45 403.95 256.756 403.95C257.062 403.031 257.369 402.419 257.981 401.5V401.194C258.594 400.275 259.206 399.663 259.819 398.744C256.45 400.275 250.019 404.256 249.1 410.075C249.1 413.138 249.406 415.588 250.019 417.425C241.138 425.388 235.625 437.331 235.625 450.5C235.625 464.281 241.75 476.531 251.244 484.8H251.856C254 484.494 255.838 483.575 257.981 482.35C262.881 486.025 268.7 488.475 275.131 489.7C275.744 492.15 276.356 493.988 276.356 494.294C278.194 501.031 282.788 506.238 288.606 508.075C290.138 508.381 291.975 508.688 293.813 508.688C297.181 508.688 301.162 507.769 303.919 505.931C308.206 507.463 315.556 507.769 320.763 504.706C325.969 501.644 329.031 493.988 328.113 488.169C332.706 485.719 335.463 482.044 336.688 477.45C337.606 472.55 336.075 466.425 332.4 462.75Z" fill="#689F38"/>
<path d="M317.7 467.038C312.8 477.756 303 486.025 291.363 489.088H291.056C289.525 489.394 288.3 489.7 286.769 490.006H286.463C284.625 490.313 283.094 490.313 281.563 490.313C280.338 490.313 279.113 490.313 277.888 490.006C277.275 490.006 276.356 489.7 275.744 489.7H274.519C275.131 492.15 275.744 493.988 275.744 494.294C276.05 494.906 276.05 495.519 276.356 496.131C278.194 496.438 279.725 496.438 281.563 496.438C298.406 496.438 313.106 487.25 321.069 473.775C325.356 473.469 330.869 469.488 332.4 463.056C331.788 463.669 331.175 463.975 330.563 464.588C326.275 467.344 321.069 467.344 317.7 467.038Z" fill="#558B2F"/>
<path d="M312.188 462.75C309.125 461.525 301.469 463.056 298.1 470.1C293.2 465.813 285.544 468.569 282.481 472.856C281.256 468.875 277.888 455.706 263.188 459.381L242.363 457.544C245.731 476.225 261.963 490.313 281.563 490.313C299.631 490.313 314.638 478.369 319.538 461.831L312.188 462.75Z" fill="#9CCC65"/>
<path d="M269.619 459.075C269.006 461.831 268.088 464.281 266.25 465.812C263.188 468.262 258.594 469.181 257.675 468.875C256.144 470.712 254 472.244 251.856 472.856C250.938 473.162 250.019 473.162 248.794 473.162C247.263 471.019 246.038 468.875 245.119 466.425C246.344 466.731 247.569 467.037 248.794 467.037C249.406 467.037 249.713 467.037 250.019 466.731C252.163 466.119 254 463.669 254.919 461.219C256.45 462.137 258.288 463.056 260.738 463.056C261.963 463.056 263.188 462.75 264.719 462.137C265.944 461.525 267.169 460.3 268.088 458.769C268.394 459.075 269.006 459.075 269.619 459.075ZM309.125 462.444C308.206 462.444 307.288 462.75 306.369 463.056C307.594 467.344 310.963 471.325 314.638 472.55C315.863 470.712 316.781 468.875 317.7 467.037C314.331 466.425 311.269 464.894 309.125 462.444Z" fill="#7CB342"/>
<path d="M333.319 440.7C337.606 433.35 337.912 423.856 333.319 417.731C329.644 412.525 323.519 409.769 316.781 410.075C317.088 402.113 312.494 393.538 299.019 389.863C293.813 388.638 286.156 389.863 280.95 394.456C275.131 391.088 265.637 392.925 261.044 396.906C257.062 400.581 254.919 404.869 255.225 409.769C255.225 411.913 256.144 416.2 257.981 418.344C248.181 425.388 241.75 437.331 241.75 450.5C241.75 456.319 242.975 461.525 245.119 466.425C246.65 467.038 248.794 467.344 250.325 467.038C252.469 466.425 254.306 463.975 255.225 461.525C257.369 462.75 260.737 464.281 265.025 462.444C267.781 461.219 270.231 456.625 269.619 453.869C276.356 459.075 289.831 451.419 284.931 438.556L291.056 423.244L286.463 411.3C285.85 411.3 285.238 411.3 284.625 410.994C305.144 412.525 321.375 429.675 321.375 450.806C321.375 456.625 320.15 462.444 317.7 467.344C321.987 467.65 329.338 467.65 333.931 461.219C336.381 457.85 336.994 451.113 335.769 446.213C335.156 443.763 334.544 441.925 333.319 440.7Z" fill="#AED581"/>
<path d="M281.563 404.562C272.069 404.562 263.188 407.625 255.838 412.525C256.144 414.669 257.063 416.812 258.288 418.344C260.431 416.812 262.575 415.587 265.025 414.362C264.106 418.956 264.719 423.55 266.863 427.531C269.006 431.206 272.375 433.963 276.356 435.494C276.356 437.025 275.744 441.619 280.031 445.6C281.563 446.825 283.094 447.744 284.931 448.356C285.238 447.438 285.85 446.213 285.85 444.987L284.625 443.763C281.869 440.088 281.869 434.881 283.706 430.594H283.094C273.906 430.594 266.863 421.406 272.375 411.606H272.069C275.131 410.994 278.194 410.381 281.563 410.381C303.613 410.381 321.375 428.144 321.375 450.194C321.375 456.013 320.15 461.831 317.7 466.731C319.538 467.037 321.988 467.038 324.438 466.425C326.275 461.219 327.5 455.706 327.5 449.888C327.5 425.081 306.675 404.562 281.563 404.562Z" fill="#8BC34A"/>
<path d="M321.375 450.5C321.375 428.45 303.613 410.688 281.563 410.688C278.5 410.688 275.438 410.994 272.375 411.912C266.863 421.712 274.213 431.206 283.706 430.9C281.869 435.188 281.869 440.394 284.625 444.069C287.381 447.744 292.588 448.05 297.181 447.744C296.569 450.194 296.875 454.481 298.713 456.013C300.55 457.544 304.531 457.544 306.369 456.931C307.9 463.056 312.8 466.425 317.7 467.344C319.844 462.137 321.375 456.319 321.375 450.5Z" fill="#DCEDC8"/>
<path d="M299.938 415.281L301.469 417.119L303.306 419.569C303.306 419.569 303.613 419.875 303.919 420.487C304.225 420.794 304.225 421.1 304.531 421.713C304.838 422.019 304.838 422.325 305.144 422.938C305.45 423.244 305.45 423.856 305.756 424.469C306.063 425.081 306.063 425.694 306.063 426.306V428.45C306.063 429.063 306.063 429.981 305.756 430.594C305.144 433.656 303.613 436.413 302.081 438.25C300.55 440.087 299.325 441.313 299.325 441.313C299.325 441.313 300.856 440.394 302.694 438.862C304.531 437.331 306.981 434.575 308.513 431.513C308.819 430.594 309.125 429.981 309.431 429.062C309.738 428.144 309.738 427.225 310.044 426.306V423.856V423.55C307.288 420.181 303.919 417.425 299.938 415.281Z" fill="#AED581"/>
<path d="M468.046 520.791C468.778 515.051 473.948 510.99 479.669 511.554C480.76 500.332 481.511 490.487 481.511 490.487C438.539 488.564 394.578 491.786 394.578 491.786C388.744 492.187 387.46 493.168 385.748 497.523C385.748 497.523 382.322 506.234 383.295 525.802C384.267 545.371 395.816 554.853 401.474 555.576C401.474 555.576 447.248 565.851 471.89 565.859C471.89 565.859 475.161 547.862 477.255 532.717C474.454 532.354 471.911 530.894 470.184 528.659C468.458 526.423 467.689 523.593 468.046 520.791Z" fill="#FFE57F"/>
<path d="M402.626 550.489L402.38 550.433L402.132 550.401C399.502 550.066 389.422 543.005 388.555 525.557C387.666 507.666 390.644 499.459 390.66 499.419C391.257 497.895 391.538 497.53 391.549 497.505C391.682 497.431 392.329 497.164 394.979 496.986C395.394 496.955 435.42 494.072 475.817 495.478L481.09 495.726C481.355 492.51 481.508 490.487 481.508 490.487C438.537 488.564 394.575 491.786 394.575 491.786C388.741 492.187 387.457 493.168 385.746 497.522C385.746 497.522 382.319 506.233 383.292 525.802C384.265 545.371 395.816 554.853 401.474 555.576C401.474 555.576 426.458 561.184 449.445 564.118C457.571 565.155 465.452 565.858 471.891 565.859C471.891 565.859 472.264 563.794 472.844 560.478C466.391 560.485 455.731 559.665 450.108 558.947C427.642 556.08 402.874 550.544 402.626 550.489Z" fill="#FFB300"/>
<path d="M385.028 499.966C385.433 498.327 385.746 497.522 385.746 497.522C387.457 493.168 388.739 492.186 394.575 491.786C394.575 491.786 438.537 488.564 481.508 490.487C481.508 490.487 446.147 484.123 438.509 482.38C430.871 480.636 424.016 480.53 420.055 481.229C416.093 481.925 403.008 485.51 403.008 485.51C385.092 489.925 385.025 499.965 385.028 499.966Z" fill="#FFA000"/>
<path d="M414.804 516.684C414.446 519.49 415.217 522.324 416.948 524.561C418.679 526.799 421.228 528.257 424.034 528.615C426.84 528.973 429.674 528.202 431.912 526.471C434.149 524.74 435.607 522.191 435.966 519.385C436.324 516.579 435.553 513.745 433.822 511.508C432.091 509.27 429.542 507.812 426.735 507.454C423.929 507.095 421.096 507.867 418.858 509.598C416.62 511.329 415.162 513.878 414.804 516.684Z" fill="#FFC400"/>
<path d="M451.218 505.202C451.038 506.605 451.424 508.022 452.29 509.14C453.155 510.259 454.43 510.988 455.833 511.167C457.236 511.347 458.653 510.961 459.771 510.095C460.89 509.23 461.619 507.955 461.798 506.552C461.977 505.149 461.592 503.732 460.726 502.614C459.861 501.495 458.586 500.766 457.183 500.587C455.78 500.408 454.363 500.793 453.245 501.659C452.126 502.524 451.397 503.799 451.218 505.202Z" fill="#FFC400"/>
<path d="M401.691 535.172C401.467 536.926 401.949 538.697 403.031 540.096C404.113 541.494 405.706 542.406 407.46 542.629C409.214 542.853 410.985 542.371 412.383 541.289C413.782 540.207 414.693 538.614 414.917 536.86C415.141 535.107 414.659 533.336 413.577 531.937C412.495 530.539 410.902 529.627 409.148 529.403C407.394 529.179 405.623 529.662 404.225 530.743C402.826 531.825 401.915 533.418 401.691 535.172Z" fill="#FFC400"/>
<path d="M396.456 512.998C396.322 514.05 396.611 515.113 397.26 515.952C397.91 516.791 398.865 517.338 399.918 517.472C400.97 517.606 402.033 517.317 402.872 516.668C403.711 516.019 404.258 515.063 404.392 514.011C404.526 512.958 404.237 511.896 403.588 511.057C402.939 510.218 401.983 509.671 400.931 509.536C399.878 509.402 398.816 509.691 397.977 510.34C397.138 510.99 396.591 511.945 396.456 512.998Z" fill="#FFC400"/>
<path d="M444.521 536.607C444.252 538.711 444.83 540.836 446.129 542.515C447.427 544.193 449.339 545.287 451.443 545.555C453.548 545.824 455.673 545.245 457.351 543.947C459.03 542.649 460.123 540.737 460.392 538.632C460.661 536.528 460.082 534.403 458.784 532.724C457.486 531.046 455.574 529.953 453.469 529.684C451.365 529.415 449.239 529.994 447.561 531.292C445.883 532.59 444.789 534.502 444.521 536.607Z" fill="#FFC400"/>
<defs>
<clipPath id="clip0_106_53">
<rect width="120" height="117" fill="white" transform="translate(154.951 192.489) rotate(-74.2399)"/>
</clipPath>
<clipPath id="clip1_106_53">
<rect width="139" height="139" fill="white" transform="translate(162.409 227.585) rotate(17.3317)"/>
</clipPath>
<clipPath id="clip2_106_53">
<rect width="81" height="81" fill="white" transform="translate(345.549 346.122) rotate(-12.1065)"/>
</clipPath>
</defs>
</svg>
